<?xml version="1.0" encoding="utf-8" ?>
<svg class="fight-note__action fight-note__input-svg" xmlns="http://www.w3.org/2000/svg" viewBox="0 0 960 960" xml:space="preserve">
	<style type="text/css">
		circle {
			fill: rgb(255, 255, 255);
		}
		.fight-note__action-background {
			stroke: rgb(0, 0, 0);
			stroke-width: 80;
		 }
	</style>
	<defs></defs>
	<path class="fight-note__action-background" d="M723.9,400c-13.1-0.3-25.8,0.9-38,3.6C675,406,664,400.7,659,390.8c-0.1-0.1-0.1-0.2-0.2-0.4 c-5-9.9-2.8-22,5.6-29.2c34.3-29.5,55.9-73.3,55.6-122.1c-0.5-89.6-75.9-162-165.5-159C468.7,83,400,153.5,400,240 c0,11.7,1.3,23.1,3.6,34.1c2.4,10.9-2.9,21.9-12.9,26.9c-0.1,0.1-0.2,0.1-0.4,0.2c-9.9,5-22,2.8-29.2-5.6 c-29.5-34.3-73.3-55.9-122.1-55.6c-89.6,0.5-162,75.9-159,165.5C83,491.3,153.5,560,240,560c11.7,0,23.1-1.3,34.1-3.6 c10.9-2.4,21.9,2.9,26.9,12.9c0.1,0.1,0.1,0.2,0.2,0.4c5,9.9,2.8,22-5.6,29.2c-34.3,29.5-55.9,73.3-55.6,122.1 c0.5,89.6,75.9,162,165.5,159C491.3,877,560,806.5,560,720c0-11.7-1.3-23.1-3.6-34.1c-2.4-10.9,2.9-21.9,12.9-26.9 c0.2-0.1,0.3-0.2,0.5-0.2c9.8-4.9,21.8-2.8,29,5.5C628,698.4,671.5,720,720,720c88.6,0,160.4-72.1,160-160.8 C879.6,473,810,402.1,723.9,400z" />
	<circle data-gradient="var(--action-color-4-light),var(--action-color-4-dark)" cx="720" cy="560" r="160" />
	<circle data-gradient="var(--action-color-4-dark),var(--action-color-4-light)" cx="720" cy="560" r="140" />
	<circle data-gradient="var(--action-color-3-light),var(--action-color-3-dark)" cx="400" cy="720" r="160" />
	<circle data-gradient="var(--action-color-3-dark),var(--action-color-3-light)" cx="400" cy="720" r="140" />
	<circle data-gradient="var(--action-color-2-light),var(--action-color-2-dark)" cx="560" cy="240" r="160" />
	<circle data-gradient="var(--action-color-2-dark),var(--action-color-2-light)" cx="560" cy="240" r="140" />
	<circle data-gradient="var(--action-color-1-light),var(--action-color-1-dark)" cx="240" cy="400" r="160" />
	<circle data-gradient="var(--action-color-1-dark),var(--action-color-1-light)" cx="240" cy="400" r="140" />
</svg>
