<?xml version="1.0" encoding="utf-8" ?>
<svg class="fight-note__move fight-note__input-svg" xmlns="http://www.w3.org/2000/svg" x="0px" y="0px" viewBox="0 0 960 960" xml:space="preserve">
	<style type="text/css">
		.fight-note__move-in {
			fill: rgb(255, 255, 255);
			stroke: rgb(0, 0, 0);
			stroke-width: 10;
		}
		.fight-note__move-out {
			fill: rgb(255, 255, 255);
		}
		.fight-note__move-background {
			stroke: rgb(0, 0, 0);
			stroke-width: 80;
		 }
	</style>
	<path class="fight-note__move-background" d="M387.3,840c-36.6,0-66.4-29.6-66.4-66V524.9c0-5.5-4.5-10-10-10h-54.5 c-26.2,0-49.3-14.7-60.3-38.3c-10.9-23.5-7.3-50.4,9.5-70.2l223.5-263c12.6-14.9,31.1-23.4,50.7-23.4c19.6,0,38.1,8.5,50.7,23.4 l223.5,263c16.8,19.8,20.5,46.7,9.5,70.2c-11,23.6-34.1,38.3-60.3,38.3H649c-5.5,0-10,4.5-10,10V774c0,36.4-29.8,66-66.4,66H387.3z" />
	<path class="fight-note__move-out" d="M387.3,840c-36.6,0-66.4-29.6-66.4-66V524.9 c0-5.5-4.5-10-10-10h-54.5c-26.2,0-49.3-14.7-60.3-38.3c-10.9-23.5-7.3-50.4,9.5-70.2l223.5-263c12.6-14.9,31.1-23.4,50.7-23.4 c19.6,0,38.1,8.5,50.7,23.4l223.5,263c16.8,19.8,20.5,46.7,9.5,70.2c-11,23.6-34.1,38.3-60.3,38.3H649c-5.5,0-10,4.5-10,10V774 c0,36.4-29.8,66-66.4,66H387.3z" />
	<path class="fight-note__move-in" d="M368.7,489.5V770c0,11.1,9.1,20,20.2,20h182.2c11.2,0,20.2-9,20.2-20V489.5c0-11.1,9.1-20,20.2-20h88.2 c17.2,0,26.6-19.9,15.5-32.9L495.5,177.2c-8.1-9.5-22.9-9.5-31,0L244.8,436.5c-11,13-1.7,32.9,15.5,32.9h88.2 C359.6,469.4,368.7,478.4,368.7,489.5z" />
</svg>
