<?xml version="1.0" encoding="utf-8" ?>
<svg class="fight-note__neutral fight-note__input-svg" xmlns="http://www.w3.org/2000/svg" x="0px" y="0px" viewBox="0 0 960 960" xml:space="preserve">
	<style type="text/css">
		.fight-note__neutral-in {
			fill: rgb(255, 255, 255);
			stroke: rgb(0, 0, 0);
			stroke-width: 10;
		}
		.fight-note__neutral-out {
			fill: rgb(255, 255, 255);
		}
		.fight-note__neutral-background {
			stroke: rgb(0, 0, 0);
			stroke-width: 80;
		 }
	</style>
	<path class="fight-note__neutral-background" d="M365.1,366.6H178.4c-46.9,0-66.2,60.1-28.2,87.5l150.5,108.1c4.3,3.1,6.1,8.6,4.4,13.6 l-57.3,174.6c-14.6,44.4,36.1,81.5,74,54.3L473,696c4.2-3,9.9-3,14.1,0l151.2,108.6c37.9,27.2,88.6-9.9,74-54.3l-57.3-174.6 c-1.6-5,0.1-10.5,4.4-13.6l150.5-108.1c38.1-27.4,18.7-87.5-28.2-87.5H594.9c-5.2,0-9.8-3.3-11.5-8.3l-57.6-175.1 c-14.6-44.2-77.1-44.2-91.7,0l-57.6,175.1C374.9,363.3,370.3,366.6,365.1,366.6z"/>
	<path class="fight-note__neutral-out" d="M365.1,366.6H178.4c-46.9,0-66.2,60.1-28.2,87.5l150.5,108.1c4.3,3.1,6.1,8.6,4.4,13.6l-57.3,174.6 c-14.6,44.4,36.1,81.5,74,54.3L473,696c4.2-3,9.9-3,14.1,0l151.2,108.6c37.9,27.2,88.6-9.9,74-54.3l-57.3-174.6 c-1.6-5,0.1-10.5,4.4-13.6l150.5-108.1c38.1-27.4,18.7-87.5-28.2-87.5H594.9c-5.2,0-9.8-3.3-11.5-8.3l-57.6-175.1 c-14.6-44.2-77.1-44.2-91.7,0l-57.6,175.1C374.9,363.3,370.3,366.6,365.1,366.6z"/>
	<path class="fight-note__neutral-in" d="M489.2,226.1l59.4,180.4c1.6,5,6.3,8.3,11.5,8.3h191.7c9.4,0,13.2,12,5.6,17.5L602.4,543.6 c-4.3,3.1-6.1,8.6-4.4,13.6l59.2,180.1c2.9,8.9-7.2,16.3-14.8,10.9L487,636.6c-4.2-3-9.9-3-14.1,0L317.6,748.1 c-7.6,5.4-17.7-2-14.8-10.9L362,557.1c1.6-5-0.1-10.5-4.4-13.6L202.7,432.4c-7.6-5.5-3.7-17.5,5.6-17.5H400c5.2,0,9.8-3.3,11.5-8.3 l59.4-180.4C473.7,217.3,486.3,217.3,489.2,226.1z"/>
</svg>
