<?xml version="1.0" encoding="utf-8"?>
<svg class="fight-note__move fight-note__input-svg" xmlns="http://www.w3.org/2000/svg" x="0px" y="0px" viewBox="0 0 960 960" xml:space="preserve">
	<style type="text/css">
		.fight-note__move-in {
			fill: rgb(255, 255, 255);
			stroke: rgb(0, 0, 0);
			stroke-width: 10;
		}
		.fight-note__move-out {
			fill: rgb(255, 255, 255);
		}
		.fight-note__move-background {
			stroke: rgb(0, 0, 0);
			stroke-width: 80;
		 }
		 .fight-note__move-line {
			fill: none;
			stroke: rgb(0, 0, 0);
			stroke-width: 10;
		 }
	</style>
	<path class="fight-note__move-background" d="M480,790c-17.2,0-33.5-7.6-44.6-20.8l-75.6-90.4l-116.5,9.8c-1.6,0.1-3.2,0.2-4.6,0.2 c-16.3,0-32-7-43.1-19.1c-11.1-12.1-16.7-28.5-15.4-45l9.7-118.1L100.6,430C87.5,418.5,80,402.1,80,384.6c0-17.4,7.5-33.9,20.5-45.2 l181-155.4c10.6-9.1,23.9-14,37.6-14c32.3,0,58.5,26.6,58.5,59.4v11.5c0,11,8.9,20,19.8,20h165.2c10.9,0,19.8-9,19.8-20v-11.5 c0-32.7,26.3-59.4,58.5-59.4c13.7,0,27.1,5,37.6,14l180.9,155.4c13,11.3,20.5,27.8,20.5,45.2s-7.5,33.9-20.5,45.2l-89.2,76.6 l9.7,118.1c1.3,16.4-4.3,32.8-15.4,45c-11.1,12.1-26.8,19.1-43.1,19.1c-1.6,0-3.2-0.1-4.6-0.2l-116.5-9.8l-75.6,90.4 C513.5,782.4,497.2,790,480,790z"/>
	<path class="fight-note__move-out" d="M480,790c-17.2,0-33.5-7.6-44.6-20.8l-75.6-90.4l-116.5,9.8c-1.6,0.1-3.2,0.2-4.6,0.2 c-16.3,0-32-7-43.1-19.1c-11.1-12.1-16.7-28.5-15.4-45l9.7-118.1L100.6,430C87.5,418.5,80,402.1,80,384.6c0-17.4,7.5-33.9,20.5-45.2 l181-155.4c10.6-9.1,23.9-14,37.6-14c32.3,0,58.5,26.6,58.5,59.4v11.5c0,11,8.9,20,19.8,20h165.2c10.9,0,19.8-9,19.8-20v-11.5 c0-32.7,26.3-59.4,58.5-59.4c13.7,0,27.1,5,37.6,14l180.9,155.4c13,11.3,20.5,27.8,20.5,45.2s-7.5,33.9-20.5,45.2l-89.2,76.6 l9.7,118.1c1.3,16.4-4.3,32.8-15.4,45c-11.1,12.1-26.8,19.1-43.1,19.1c-1.6,0-3.2-0.1-4.6-0.2l-116.5-9.8l-75.6,90.4 C513.5,782.4,497.2,790,480,790z"/>
	<path class="fight-note__move-in" d="M347.2,306c-7.7,0-13.9-6.4-13.9-14.3v-62.4c0-12.1-13.8-18.8-22.9-10.9L129.4,373.7 c-6.6,5.7-6.6,16.2,0,21.9L236,487.1l-11.6,141c-0.7,8.8,6.6,16.2,15.3,15.5l139.2-11.7l90.3,108c5.6,6.7,16,6.7,21.6,0l90.3-108 l139.2,11.7c8.7,0.7,16-6.7,15.3-15.5l-11.6-141l106.7-91.5c6.6-5.7,6.6-16.2,0-21.9L649.8,218.4c-9.1-7.8-22.9-1.2-22.9,10.9v62.4 c0,7.8-6.3,14.3-14,14.3L347.2,306z"/>
	<path class="fight-note__move-line" d="M367.7,387.2l-36.5,37c-5.4,5.5-14.3,5.4-19.9-0.1l-43.5-44c-8.5-8.6-22.9-3.3-23.9,8.7l-8,98.4"/>
	<path class="fight-note__move-line" d="M402.4,466.9v52.4c0,7.8-6.3,14.1-14.1,14.1h-61.5c-12,0-18.6,14-10.8,23.2l62.9,75.3"/>
	<path class="fight-note__move-line" d="M482.5,498.4l36.5,37c5.4,5.5,5.3,14.5-0.1,20.1l-43.5,44c-8.5,8.6-3.3,23.2,8.6,24.2l97.1,8.1"/>
	<path class="fight-note__move-line" d="M561.2,463.3h51.7c7.7,0,13.9,6.4,13.9,14.3V540c0,12.1,13.8,18.8,22.9,10.9l74.3-63.8"/>
</svg>
