<?xml version="1.0" encoding="utf-8"?>
<svg class="fight-note__move fight-note__input-svg" xmlns="http://www.w3.org/2000/svg" x="0px" y="0px" viewBox="0 0 960 960" xml:space="preserve">
	<style type="text/css">
		.fight-note__move-in {
			fill: rgb(255, 255, 255);
			stroke: rgb(0, 0, 0);
			stroke-width: 10;
		}
		.fight-note__move-out {
			fill: rgb(255, 255, 255);
		}
		.fight-note__move-background {
			stroke: rgb(0, 0, 0);
			stroke-width: 80;
		 }
		 .fight-note__move-line {
			fill: none;
			stroke: rgb(0, 0, 0);
			stroke-width: 10;
		 }
	</style>
	<path class="fight-note__move-background" d="M372.7,820c-17,0-33.2-7.5-44.3-20.4L153.8,593.3c-14.7-17.3-18-40.9-8.5-61.5 c9.4-20.5,30.1-33.7,52.7-33.7h25.8c10.2,0,18.6-8.3,18.6-18.5l0.1-26.6c0.3-56.4,22.5-110.7,62.6-150.3 c39.2-38.6,91-59.9,146.1-60.2l28.3-0.1c10.2,0,18.5-8.4,18.5-18.6V198c0-32,26-58,57.9-58c13.6,0,26.7,4.8,37.3,13.7l206.3,174.8 c12.9,11.1,20.4,27.2,20.4,44.3c0,17-7.5,33.2-20.4,44.3L694.4,506l11.4,137.3c1.3,16.1-4.3,32.1-15.3,44 c-11,11.9-26.6,18.7-42.7,18.7c-1.5,0-141.9-11.6-141.9-11.6l-89.1,105.2C405.9,812.5,389.8,820,372.7,820z"/>
	<path class="fight-note__move-out" d="M372.7,820c-17,0-33.2-7.5-44.3-20.4L153.8,593.3c-14.7-17.3-18-40.9-8.5-61.5 c9.4-20.5,30.1-33.7,52.7-33.7h25.8c10.2,0,18.6-8.3,18.6-18.5l0.1-26.6c0.3-56.4,22.5-110.7,62.6-150.3 c39.2-38.6,91-59.9,146.1-60.2l28.3-0.1c10.2,0,18.5-8.4,18.5-18.6V198c0-32,26-58,57.9-58c13.6,0,26.7,4.8,37.3,13.7l206.3,174.8 c12.9,11.1,20.4,27.2,20.4,44.3c0,17-7.5,33.2-20.4,44.3L694.4,506l11.4,137.3c1.3,16.1-4.3,32.1-15.3,44 c-11,11.9-26.6,18.7-42.7,18.7c-1.5,0-141.9-11.6-141.9-11.6l-89.1,105.2C405.9,812.5,389.8,820,372.7,820z"/>
	<path class="fight-note__move-in" d="M284.2,524.1c0,8.9-7.3,15.9-16,15.9H198c-13.7,0-21.1,15.8-12.3,26.2l174.7,206.3 c6.4,7.5,18.2,7.5,24.7,0L488.1,651l158.7,13.1c9.9,0.7,18.3-7.5,17.4-17.4L651,488L772.5,385c7.5-6.4,7.5-18.2,0-24.7L566.3,185.7 c-10.3-8.8-26.2-1.4-26.2,12.3v70.2c0,8.9-7.2,16-16,16l-72.7,0.3c-92,0.4-166.6,74.9-166.9,166.9L284.2,524.1z"/>
	<path class="fight-note__move-line" d="M376.9,502l40.3,40.3c6.2,6.2,6.1,16.4-0.1,22.6l-49.6,49.6c-9.7,9.7-3.7,26.2,9.8,27.2l110.7,9.1"/>
	<path class="fight-note__move-line" d="M444.3,461.1h79.9c8.9,0,15.9,7.3,15.9,16v70.2 c0,13.7,15.8,21.1,26.2,12.3l84.8-71.7"/>
</svg>
