<?xml version="1.0" encoding="utf-8"?>
<svg class="fight-note__icon-balcony-break fight-note__input-svg" xmlns="http://www.w3.org/2000/svg" x="0px" y="0px" viewBox="0 0 960 960" xml:space="preserve">
	<style type="text/css">
		.fight-note__icon-figure {
			fill: rgb(255, 255, 255);
		}
		.fight-note__icon-plate {
			fill: rgb(0, 0, 0);
		}
		.fight-note__icon-background {
			fill: rgb(0, 0, 0);
			stroke: rgb(0, 0, 0);
			stroke-width: 80;
		}
	</style>
	<defs></defs>
	<path class="fight-note__icon-background" d="M768,840H192c-39.8,0-72-32.2-72-72V192c0-39.8,32.2-72,72-72h576c39.8,0,72,32.2,72,72v576 C840,807.8,807.8,840,768,840z"/>
	<path class="fight-note__icon-plate" data-gradient="var(--plate-color-light),var(--plate-color-dark)" d="M768,840H192c-39.8,0-72-32.2-72-72V192c0-39.8,32.2-72,72-72h576c39.8,0,72,32.2,72,72v576 C840,807.8,807.8,840,768,840z"/>
	<circle class="fight-note__icon-figure" cx="657.1" cy="432.9" r="57.1"/>
	<path class="fight-note__icon-figure" d="M816.5,485.9l-10.4-21.6c-1.9-4-6.7-5.7-10.7-3.7l-103.3,49.6c-24,11.5-52.2,9.6-74.4-5.1l-22.6-15 c-4.4-2.9-7.6-7.2-9.2-12.2l-45.4-140.3c-1.4-4.2-5.9-6.5-10.1-5.1l-22.8,7.4c-4.2,1.4-6.5,5.9-5.1,10.1l51.2,158 c2.4,7.4,1.6,15.5-2.3,22.2L516.6,591c-3.4,6-8.9,10.5-15.5,12.6l-172.7,55.9c-4.2,1.4-6.5,5.9-5.1,10.1l7.4,22.8 c1.4,4.2,5.9,6.5,10.1,5.1l169.9-55c3.2-1,6.7,0,8.8,2.7l19.3,25.1c3.1,4,1.7,9.9-2.9,12.1l-168.7,81c-4,1.9-5.7,6.7-3.7,10.7 l10.4,21.6c1.9,4,6.7,5.7,10.7,3.7L556.3,717c8.9-4.3,16.3-11,21.5-19.3l73.6-119.4c2.3-3.8,5.7-6.9,9.8-8.8l151.7-72.9 C816.8,494.7,818.4,489.9,816.5,485.9z"/>
	<rect class="fight-note__icon-figure" x="431.2" y="296.3" transform="matrix(0.7071 -0.7071 0.7071 0.7071 -126.9507 416.0445)" width="15" height="130"/>
	<rect class="fight-note__icon-figure" x="357.1" y="370.4" transform="matrix(0.7071 -0.7071 0.7071 0.7071 -201.0555 385.3492)" width="15" height="130"/>
	<rect class="fight-note__icon-figure" x="394.2" y="333.3" transform="matrix(0.7071 -0.7071 0.7071 0.7071 -164.0031 400.6969)" width="15" height="130"/>
	<rect class="fight-note__icon-figure" x="233.5" y="147.2" transform="matrix(0.7071 -0.7071 0.7071 0.7071 -99.8097 240.9619)" width="15" height="187.4"/>
	<circle class="fight-note__icon-figure" cx="356" cy="266" r="16"/>
	<circle class="fight-note__icon-figure" cx="354" cy="196" r="16"/>
	<circle class="fight-note__icon-figure" cx="456" cy="226" r="16"/>
	<circle class="fight-note__icon-figure" cx="296" cy="526" r="16"/>
	<path class="fight-note__icon-figure" d="M161,320v20h-41v30h41v463c9.4,4.5,19.9,7,31,7h49V320H161z"/>
</svg>
