<?xml version="1.0" encoding="utf-8"?>
<svg class="fight-note__icon-floor-break fight-note__input-svg" xmlns="http://www.w3.org/2000/svg" x="0px" y="0px" viewBox="0 0 960 960" xml:space="preserve">
	<style type="text/css">
		.fight-note__icon-figure {
			fill: rgb(255, 255, 255);
		}
		.fight-note__icon-plate {
			fill: rgb(0, 0, 0);
		}
		.fight-note__icon-background {
			fill: rgb(0, 0, 0);
			stroke: rgb(0, 0, 0);
			stroke-width: 80;
		}
	</style>
	<defs></defs>
	<path class="fight-note__icon-background" d="M768,840H192c-39.8,0-72-32.2-72-72V192c0-39.8,32.2-72,72-72h576c39.8,0,72,32.2,72,72v576 C840,807.8,807.8,840,768,840z"/>
	<path class="fight-note__icon-plate" data-gradient="var(--plate-color-light),var(--plate-color-dark)" d="M768,840H192c-39.8,0-72-32.2-72-72V192c0-39.8,32.2-72,72-72h576c39.8,0,72,32.2,72,72v576 C840,807.8,807.8,840,768,840z"/>
	<rect class="fight-note__icon-figure" x="120" y="690" width="170" height="80"/>
	<polygon class="fight-note__icon-figure" points="530,720 530,660 430,660 430,720 390,720 480,810 570,720"/>
	<rect class="fight-note__icon-figure" x="269.2" y="516.3" transform="matrix(0.7452 -0.6669 0.6669 0.7452 -326.5274 338.1232)" width="20" height="160"/>
	<circle class="fight-note__icon-figure" cx="175" cy="485" r="15"/>
	<rect class="fight-note__icon-figure" x="597.8" y="590.7" transform="matrix(0.7104 -0.7038 0.7038 0.7104 -226.4837 650.986)" width="160" height="20"/>
	<circle class="fight-note__icon-figure" cx="775" cy="505" r="15"/>
	<circle class="fight-note__icon-figure" cx="760" cy="630" r="20"/>
	<circle class="fight-note__icon-figure" cx="190" cy="630" r="20"/>
	<circle class="fight-note__icon-figure" cx="275" cy="475" r="15"/>
	<circle class="fight-note__icon-figure" cx="520" cy="242.1" r="50"/>
	<path class="fight-note__icon-figure" d="M642.1,261.5l-10.3,61.8c-0.5,3.1-3.3,5.3-6.5,5c-80.9-7.7-186.2-24.5-310.5-46.6c-4.4-0.8-8.6,2.2-9.3,6.6 c-0.8,4.7-1.8,10.6-2.6,15.3c-0.7,4.4,2.2,8.5,6.6,9.2l118.8,19.8c4,0.7,6.9,4.2,6.7,8.3c-2.7,50.3-27.8,218.2-39.5,274.1 c-0.9,4.4,2,8.8,6.5,9.5l24.8,4.1c4.4,0.7,8.5-2.2,9.2-6.6l19.4-116.2c0.7-4.2,4.6-7.2,8.9-6.6l24.4,3.1c4.2,0.5,7.3,4.3,7,8.5 l-8.8,117c-0.3,4.4,3,8.2,7.4,8.6l25,1.9c4.4,0.3,8.5-3,8.6-7.4c1.2-73.2,13.7-207.5,27.4-271.7c0.9-4.3,4.6-7.5,8.9-6.9l84.2,10.7 c4.3,0.5,8.2-2.4,8.9-6.6c3.2-19.3,11.6-70,14.9-89.9c0.7-4.3-2.2-8.4-6.6-9.2l-14.3-2.4C646.9,254.2,642.8,257.2,642.1,261.5z"/>
	<rect class="fight-note__icon-figure" x="670" y="690" width="170" height="80"/>
</svg>
