<?xml version="1.0" encoding="utf-8"?>
<svg class="fight-note__icon-heat fight-note__input-svg" xmlns="http://www.w3.org/2000/svg" x="0px" y="0px" viewBox="0 0 960 960" xml:space="preserve">
	<style type="text/css">
		.fight-note__icon-figure {
			fill: rgb(255, 255, 255);
		}
		.fight-note__icon-plate {
			fill: rgb(0, 0, 0);
		}
		.fight-note__icon-background {
			fill: rgb(0, 0, 0);
			stroke: rgb(0, 0, 0);
			stroke-width: 80;
		}
	</style>
	<defs></defs>
	<path class="fight-note__icon-background" d="M768,840H192c-39.8,0-72-32.2-72-72V192c0-39.8,32.2-72,72-72h576c39.8,0,72,32.2,72,72v576 C840,807.8,807.8,840,768,840z"/>
	<path class="fight-note__icon-plate" data-gradient="var(--plate-color-light),var(--plate-color-dark)" d="M768,840H192c-39.8,0-72-32.2-72-72V192c0-39.8,32.2-72,72-72h576c39.8,0,72,32.2,72,72v576 C840,807.8,807.8,840,768,840z"/>
	<path class="fight-note__icon-figure" d="M773.6,504.1c0-90.4-30.6-210.4-103-267.3c46.5,94.2,45.8,82.2-65,14.3c-33.1-20.2-67.8-41.1-132.9-61.2 c65,43,80.6,57.1,76.8,70.5c-91.7-35.3-198.7-63.9-279.3-58.1c200.1,105.2,80.5,119.9-101.8,56.1c102.8,58.6,89.5,69.1,9.1,68.2 C454.2,468.4,351.3,460,186,393.9c210.5,182,175.9,221.7,38.6,308.2c181.9-3.8,156.5,39.3-28.2,66.3c117.1,0,331.6,1.5,434.1,1.5 c83.3,0,86.4-85.2,86.6-25.3C730.4,732.7,773.6,594.5,773.6,504.1z M521.2,337.8c28.6-1.9,52.3,20.7,52.3,48.8 c0,27.1-22,48.9-48.9,48.9c-28.4,0-51.1-24.2-48.7-53C477.8,358.6,497.2,339.4,521.2,337.8z M396.9,737.6 c-7.6-7-16.5-25.2-18.9-34.7c-0.3-1.2,0.2-2.6,1.3-3.2c8.1-5.1,43.6-15.4,56.9-48.6c1.2-2.9,4.2-4.6,7.3-4 c14.2,2.5,39.4,16.4,39.4,21.5c-15.4,39.3-70.6,65.7-83.2,69.6C398.8,738.5,397.7,738.3,396.9,737.6z M674.1,440.5 c-4.7,11.6-22.5,42.6-34.1,53.6c-0.8,0.8-1.7,1.4-2.6,2c-16,9.3-43.3,17.9-68.3,22.6c-7.1,1.3-12.3,7.3-12.7,14.4 c-0.9,18.8-3.1,49.7-3.8,70.2c-0.2,6.3,3.4,12.1,9.1,14.6c42.5,18.4,75.3,66.2,82.9,105.4c0.9,4.9-2.9,9.4-7.9,9.4h-33 c-3.7,0-6.9-2.5-7.8-6.1c-5.8-25.1-34.3-60.2-144-95.1c-16.7-5.3-27.6-21.5-26.3-39c3.2-41.3,14.7-107.7,27.7-120.5 c16.8-16.6,144.7,0.1,156.6-8.6c10.4-7.7,26.7-33.4,36.6-41.9c2.2-1.9,5.3-2.4,8-1.3c5.8,2.2,14.1,7.4,18.2,12.4 C674.7,434.7,675.1,437.8,674.1,440.5z"/>
</svg>
